<svg width="100" height="100" viewBox="0 0 100 100" fill="none" xmlns="http://www.w3.org/2000/svg">
<g clip-path="url(#clip0_90019_94)">
<rect width="100" height="100" rx="14" fill="url(#paint0_linear_90019_94)"/>
<g filter="url(#filter0_ddi_90019_94)">
<mask id="path-2-inside-1_90019_94" fill="white">
<path d="M22.5811 48.1631H34.4756V63.708C33.6826 63.9678 32.8828 64.207 32.0762 64.4258C31.2695 64.6309 30.4287 64.8086 29.5537 64.959C28.6924 65.0957 27.7832 65.2051 26.8262 65.2871C25.8828 65.3691 24.8779 65.4102 23.8115 65.4102C21.5693 65.4102 19.5801 65.082 17.8438 64.4258C16.1211 63.7559 14.665 62.7715 13.4756 61.4727C12.2998 60.1602 11.4043 58.5469 10.7891 56.6328C10.1738 54.7051 9.86621 52.4834 9.86621 49.9678C9.86621 47.6162 10.208 45.4902 10.8916 43.5898C11.5752 41.6895 12.5801 40.0762 13.9062 38.75C15.2461 37.4102 16.8867 36.3848 18.8281 35.6738C20.7832 34.9492 23.0186 34.5869 25.5342 34.5869C27.1338 34.5869 28.6992 34.7578 30.2305 35.0996C31.7617 35.4414 33.1631 35.8857 34.4346 36.4326L32.3223 41.5186C31.3926 41.0537 30.3398 40.6641 29.1641 40.3496C28.002 40.0352 26.7783 39.8779 25.4932 39.8779C24.0986 39.8779 22.8408 40.124 21.7197 40.6162C20.6123 41.0947 19.6621 41.7783 18.8691 42.667C18.0762 43.5557 17.4678 44.6289 17.0439 45.8867C16.6201 47.1445 16.4082 48.5459 16.4082 50.0908C16.4082 51.5674 16.5518 52.9209 16.8389 54.1514C17.1396 55.3682 17.6045 56.4209 18.2334 57.3096C18.8623 58.1982 19.6689 58.8887 20.6533 59.3809C21.6514 59.873 22.8408 60.1191 24.2217 60.1191C25.124 60.1191 25.8828 60.0781 26.498 59.9961C27.127 59.9141 27.7148 59.8184 28.2617 59.709V53.4541H22.5811V48.1631ZM52.8506 65H39.2129V61.3906L42.8633 59.709V40.3086L39.2129 38.627V35.0176H52.8506V38.627L49.2002 40.3086V59.709L52.8506 61.3906V65ZM70.0566 65L63.4736 41.4775H63.2891C63.3711 42.7354 63.4395 43.9521 63.4941 45.1279C63.5215 45.6338 63.542 46.1533 63.5557 46.6865C63.583 47.2197 63.6035 47.7461 63.6172 48.2656C63.6445 48.7852 63.6582 49.2842 63.6582 49.7627C63.6719 50.2412 63.6787 50.6719 63.6787 51.0547V65H57.998V35.0176H66.6523L73.1328 57.9453H73.2559L80.1465 35.0176H88.8008V65H82.874V50.8086C82.874 50.4531 82.874 50.0498 82.874 49.5986C82.8877 49.1475 82.9014 48.6689 82.915 48.1631C82.9287 47.6572 82.9424 47.1445 82.9561 46.625C82.9834 46.1055 83.0039 45.5996 83.0176 45.1074C83.0723 43.959 83.1201 42.7627 83.1611 41.5186H82.9971L75.9014 65H70.0566Z"/>
</mask>
<path d="M22.5811 48.1631H34.4756V63.708C33.6826 63.9678 32.8828 64.207 32.0762 64.4258C31.2695 64.6309 30.4287 64.8086 29.5537 64.959C28.6924 65.0957 27.7832 65.2051 26.8262 65.2871C25.8828 65.3691 24.8779 65.4102 23.8115 65.4102C21.5693 65.4102 19.5801 65.082 17.8438 64.4258C16.1211 63.7559 14.665 62.7715 13.4756 61.4727C12.2998 60.1602 11.4043 58.5469 10.7891 56.6328C10.1738 54.7051 9.86621 52.4834 9.86621 49.9678C9.86621 47.6162 10.208 45.4902 10.8916 43.5898C11.5752 41.6895 12.5801 40.0762 13.9062 38.75C15.2461 37.4102 16.8867 36.3848 18.8281 35.6738C20.7832 34.9492 23.0186 34.5869 25.5342 34.5869C27.1338 34.5869 28.6992 34.7578 30.2305 35.0996C31.7617 35.4414 33.1631 35.8857 34.4346 36.4326L32.3223 41.5186C31.3926 41.0537 30.3398 40.6641 29.1641 40.3496C28.002 40.0352 26.7783 39.8779 25.4932 39.8779C24.0986 39.8779 22.8408 40.124 21.7197 40.6162C20.6123 41.0947 19.6621 41.7783 18.8691 42.667C18.0762 43.5557 17.4678 44.6289 17.0439 45.8867C16.6201 47.1445 16.4082 48.5459 16.4082 50.0908C16.4082 51.5674 16.5518 52.9209 16.8389 54.1514C17.1396 55.3682 17.6045 56.4209 18.2334 57.3096C18.8623 58.1982 19.6689 58.8887 20.6533 59.3809C21.6514 59.873 22.8408 60.1191 24.2217 60.1191C25.124 60.1191 25.8828 60.0781 26.498 59.9961C27.127 59.9141 27.7148 59.8184 28.2617 59.709V53.4541H22.5811V48.1631ZM52.8506 65H39.2129V61.3906L42.8633 59.709V40.3086L39.2129 38.627V35.0176H52.8506V38.627L49.2002 40.3086V59.709L52.8506 61.3906V65ZM70.0566 65L63.4736 41.4775H63.2891C63.3711 42.7354 63.4395 43.9521 63.4941 45.1279C63.5215 45.6338 63.542 46.1533 63.5557 46.6865C63.583 47.2197 63.6035 47.7461 63.6172 48.2656C63.6445 48.7852 63.6582 49.2842 63.6582 49.7627C63.6719 50.2412 63.6787 50.6719 63.6787 51.0547V65H57.998V35.0176H66.6523L73.1328 57.9453H73.2559L80.1465 35.0176H88.8008V65H82.874V50.8086C82.874 50.4531 82.874 50.0498 82.874 49.5986C82.8877 49.1475 82.9014 48.6689 82.915 48.1631C82.9287 47.6572 82.9424 47.1445 82.9561 46.625C82.9834 46.1055 83.0039 45.5996 83.0176 45.1074C83.0723 43.959 83.1201 42.7627 83.1611 41.5186H82.9971L75.9014 65H70.0566Z" fill="black"/>
<path d="M22.5811 48.1631V47.1631H21.5811V48.1631H22.5811ZM34.4756 48.1631H35.4756V47.1631H34.4756V48.1631ZM34.4756 63.708L34.7869 64.6583L35.4756 64.4327V63.708H34.4756ZM32.0762 64.4258L32.3226 65.3949L32.3303 65.393L32.3379 65.3909L32.0762 64.4258ZM29.5537 64.959L29.7105 65.9467L29.7231 65.9445L29.5537 64.959ZM26.8262 65.2871L26.7408 64.2908L26.7395 64.2909L26.8262 65.2871ZM17.8438 64.4258L17.4813 65.3578L17.4902 65.3612L17.8438 64.4258ZM13.4756 61.4727L12.7307 62.1399L12.7381 62.148L13.4756 61.4727ZM10.7891 56.6328L9.8364 56.9369L9.83703 56.9388L10.7891 56.6328ZM18.8281 35.6738L19.172 36.6129L19.1757 36.6115L18.8281 35.6738ZM34.4346 36.4326L35.3581 36.8162L35.7369 35.9042L34.8297 35.514L34.4346 36.4326ZM32.3223 41.5186L31.8751 42.413L32.8344 42.8927L33.2458 41.9021L32.3223 41.5186ZM29.1641 40.3496L28.9029 41.3149L28.9057 41.3157L29.1641 40.3496ZM21.7197 40.6162L22.1164 41.5342L22.1217 41.5319L21.7197 40.6162ZM16.8389 54.1514L15.8649 54.3786L15.8681 54.3913L16.8389 54.1514ZM20.6533 59.3809L20.2061 60.2753L20.211 60.2777L20.6533 59.3809ZM26.498 59.9961L26.3687 59.0045L26.3659 59.0049L26.498 59.9961ZM28.2617 59.709L28.4578 60.6896L29.2617 60.5288V59.709H28.2617ZM28.2617 53.4541H29.2617V52.4541H28.2617V53.4541ZM22.5811 53.4541H21.5811V54.4541H22.5811V53.4541ZM22.5811 48.1631V49.1631H34.4756V48.1631V47.1631H22.5811V48.1631ZM34.4756 48.1631H33.4756V63.708H34.4756H35.4756V48.1631H34.4756ZM34.4756 63.708L34.1643 62.7577C33.3877 63.0121 32.6045 63.2464 31.8144 63.4606L32.0762 64.4258L32.3379 65.3909C33.1612 65.1677 33.9775 64.9235 34.7869 64.6583L34.4756 63.708ZM32.0762 64.4258L31.8298 63.4566C31.0502 63.6548 30.2351 63.8272 29.3843 63.9734L29.5537 64.959L29.7231 65.9445C30.6223 65.79 31.4889 65.6069 32.3226 65.3949L32.0762 64.4258ZM29.5537 64.959L29.3969 63.9713C28.5615 64.104 27.6763 64.2106 26.7408 64.2908L26.8262 65.2871L26.9116 66.2835C27.8901 66.1996 28.8232 66.0875 29.7105 65.9466L29.5537 64.959ZM26.8262 65.2871L26.7395 64.2909C25.8283 64.3701 24.8526 64.4102 23.8115 64.4102V65.4102V66.4102C24.9033 66.4102 25.9373 66.3682 26.9128 66.2833L26.8262 65.2871ZM23.8115 65.4102V64.4102C21.6657 64.4102 19.7999 64.0961 18.1973 63.4904L17.8438 64.4258L17.4902 65.3612C19.3603 66.068 21.473 66.4102 23.8115 66.4102V65.4102ZM17.8438 64.4258L18.2062 63.4938C16.6193 62.8767 15.2937 61.9773 14.2131 60.7973L13.4756 61.4727L12.7381 62.148C14.0364 63.5657 15.6229 64.6351 17.4813 65.3578L17.8438 64.4258ZM13.4756 61.4727L14.2204 60.8054C13.1506 59.6112 12.3194 58.126 11.7411 56.3268L10.7891 56.6328L9.83703 56.9388C10.4892 58.9677 11.449 60.7091 12.7308 62.1399L13.4756 61.4727ZM10.7891 56.6328L11.7417 56.3288C11.1644 54.5199 10.8662 52.4042 10.8662 49.9678H9.86621H8.86621C8.86621 52.5626 9.18325 54.8903 9.8364 56.9369L10.7891 56.6328ZM9.86621 49.9678H10.8662C10.8662 47.713 11.1939 45.7039 11.8326 43.9283L10.8916 43.5898L9.95063 43.2514C9.22214 45.2766 8.86621 47.5194 8.86621 49.9678H9.86621ZM10.8916 43.5898L11.8326 43.9283C12.4702 42.1557 13.3992 40.6713 14.6134 39.4571L13.9062 38.75L13.1991 38.0429C11.761 39.4811 10.6802 41.2232 9.95063 43.2514L10.8916 43.5898ZM13.9062 38.75L14.6134 39.4571C15.8413 38.2291 17.3545 37.2784 19.172 36.6128L18.8281 35.6738L18.4843 34.7348C16.419 35.4911 14.6509 36.5912 13.1991 38.0429L13.9062 38.75ZM18.8281 35.6738L19.1757 36.6115C20.9992 35.9356 23.1134 35.5869 25.5342 35.5869V34.5869V33.5869C22.9237 33.5869 20.5672 33.9628 18.4806 34.7362L18.8281 35.6738ZM25.5342 34.5869V35.5869C27.0619 35.5869 28.5543 35.7501 30.0126 36.0756L30.2305 35.0996L30.4483 34.1236C28.8442 33.7656 27.2056 33.5869 25.5342 33.5869V34.5869ZM30.2305 35.0996L30.0126 36.0756C31.491 36.4056 32.8321 36.832 34.0395 37.3513L34.4346 36.4326L34.8297 35.514C33.494 34.9395 32.0324 34.4772 30.4483 34.1236L30.2305 35.0996ZM34.4346 36.4326L33.5111 36.0491L31.3987 41.135L32.3223 41.5186L33.2458 41.9021L35.3581 36.8162L34.4346 36.4326ZM32.3223 41.5186L32.7695 40.6241C31.7702 40.1245 30.6527 39.7126 29.4224 39.3836L29.1641 40.3496L28.9057 41.3157C30.027 41.6155 31.0149 41.9829 31.8751 42.413L32.3223 41.5186ZM29.1641 40.3496L29.4253 39.3843C28.1725 39.0453 26.8606 38.8779 25.4932 38.8779V39.8779V40.8779C26.696 40.8779 27.8315 41.025 28.9029 41.3149L29.1641 40.3496ZM25.4932 39.8779V38.8779C23.9794 38.8779 22.582 39.1455 21.3177 39.7006L21.7197 40.6162L22.1217 41.5319C23.0996 41.1025 24.2178 40.8779 25.4932 40.8779V39.8779ZM21.7197 40.6162L21.3231 39.6982C20.084 40.2336 19.014 41.0026 18.123 42.0012L18.8691 42.667L19.6153 43.3328C20.3102 42.554 21.1406 41.9558 22.1164 41.5342L21.7197 40.6162ZM18.8691 42.667L18.123 42.0012C17.2304 43.0015 16.5583 44.1963 16.0963 45.5674L17.0439 45.8867L17.9916 46.206C18.3773 45.0615 18.9219 44.1098 19.6153 43.3328L18.8691 42.667ZM17.0439 45.8867L16.0963 45.5674C15.6326 46.9434 15.4082 48.4547 15.4082 50.0908H16.4082H17.4082C17.4082 48.6371 17.6076 47.3457 17.9916 46.206L17.0439 45.8867ZM16.4082 50.0908H15.4082C15.4082 51.6314 15.5579 53.0624 15.865 54.3786L16.8389 54.1514L17.8127 53.9241C17.5456 52.7794 17.4082 51.5034 17.4082 50.0908H16.4082ZM16.8389 54.1514L15.8681 54.3913C16.1944 55.7112 16.706 56.8824 17.4171 57.8872L18.2334 57.3096L19.0497 56.7319C18.503 55.9594 18.0849 55.0251 17.8096 53.9114L16.8389 54.1514ZM18.2334 57.3096L17.4171 57.8872C18.1422 58.9118 19.0762 59.7103 20.2061 60.2753L20.6533 59.3809L21.1005 58.4864C20.2617 58.067 19.5824 57.4847 19.0497 56.7319L18.2334 57.3096ZM20.6533 59.3809L20.211 60.2777C21.3758 60.8521 22.7236 61.1191 24.2217 61.1191V60.1191V59.1191C22.9581 59.1191 21.927 58.894 21.0956 58.484L20.6533 59.3809ZM24.2217 60.1191V61.1191C25.1503 61.1191 25.9564 61.0772 26.6302 60.9873L26.498 59.9961L26.3659 59.0049C25.8092 59.0791 25.0977 59.1191 24.2217 59.1191V60.1191ZM26.498 59.9961L26.6274 60.9877C27.2757 60.9031 27.8861 60.8039 28.4578 60.6896L28.2617 59.709L28.0656 58.7284C27.5436 58.8328 26.9782 58.925 26.3687 59.0045L26.498 59.9961ZM28.2617 59.709H29.2617V53.4541H28.2617H27.2617V59.709H28.2617ZM28.2617 53.4541V52.4541H22.5811V53.4541V54.4541H28.2617V53.4541ZM22.5811 53.4541H23.5811V48.1631H22.5811H21.5811V53.4541H22.5811ZM52.8506 65V66H53.8506V65H52.8506ZM39.2129 65H38.2129V66H39.2129V65ZM39.2129 61.3906L38.7945 60.4824L38.2129 60.7503V61.3906H39.2129ZM42.8633 59.709L43.2817 60.6172L43.8633 60.3493V59.709H42.8633ZM42.8633 40.3086H43.8633V39.6683L43.2817 39.4003L42.8633 40.3086ZM39.2129 38.627H38.2129V39.2673L38.7945 39.5352L39.2129 38.627ZM39.2129 35.0176V34.0176H38.2129V35.0176H39.2129ZM52.8506 35.0176H53.8506V34.0176H52.8506V35.0176ZM52.8506 38.627L53.269 39.5352L53.8506 39.2673V38.627H52.8506ZM49.2002 40.3086L48.7818 39.4003L48.2002 39.6683V40.3086H49.2002ZM49.2002 59.709H48.2002V60.3493L48.7818 60.6172L49.2002 59.709ZM52.8506 61.3906H53.8506V60.7503L53.269 60.4824L52.8506 61.3906ZM52.8506 65V64H39.2129V65V66H52.8506V65ZM39.2129 65H40.2129V61.3906H39.2129H38.2129V65H39.2129ZM39.2129 61.3906L39.6313 62.2989L43.2817 60.6172L42.8633 59.709L42.4449 58.8007L38.7945 60.4824L39.2129 61.3906ZM42.8633 59.709H43.8633V40.3086H42.8633H41.8633V59.709H42.8633ZM42.8633 40.3086L43.2817 39.4003L39.6313 37.7187L39.2129 38.627L38.7945 39.5352L42.4449 41.2169L42.8633 40.3086ZM39.2129 38.627H40.2129V35.0176H39.2129H38.2129V38.627H39.2129ZM39.2129 35.0176V36.0176H52.8506V35.0176V34.0176H39.2129V35.0176ZM52.8506 35.0176H51.8506V38.627H52.8506H53.8506V35.0176H52.8506ZM52.8506 38.627L52.4322 37.7187L48.7818 39.4003L49.2002 40.3086L49.6186 41.2169L53.269 39.5352L52.8506 38.627ZM49.2002 40.3086H48.2002V59.709H49.2002H50.2002V40.3086H49.2002ZM49.2002 59.709L48.7818 60.6172L52.4322 62.2989L52.8506 61.3906L53.269 60.4824L49.6186 58.8007L49.2002 59.709ZM52.8506 61.3906H51.8506V65H52.8506H53.8506V61.3906H52.8506ZM70.0566 65L69.0936 65.2695L69.2981 66H70.0566V65ZM63.4736 41.4775L64.4366 41.208L64.2322 40.4775H63.4736V41.4775ZM63.2891 41.4775V40.4775H62.2217L62.2912 41.5426L63.2891 41.4775ZM63.4941 45.1279L62.4952 45.1744L62.4956 45.1819L63.4941 45.1279ZM63.5557 46.6865L62.556 46.7122L62.5563 46.725L62.557 46.7377L63.5557 46.6865ZM63.6172 48.2656L62.6175 48.2919L62.6179 48.3051L62.6186 48.3182L63.6172 48.2656ZM63.6582 49.7627H62.6582V49.777L62.6586 49.7913L63.6582 49.7627ZM63.6787 65V66H64.6787V65H63.6787ZM57.998 65H56.998V66H57.998V65ZM57.998 35.0176V34.0176H56.998V35.0176H57.998ZM66.6523 35.0176L67.6146 34.7456L67.4089 34.0176H66.6523V35.0176ZM73.1328 57.9453L72.1705 58.2173L72.3763 58.9453H73.1328V57.9453ZM73.2559 57.9453V58.9453H73.9995L74.2135 58.2331L73.2559 57.9453ZM80.1465 35.0176V34.0176H79.4028L79.1888 34.7298L80.1465 35.0176ZM88.8008 35.0176H89.8008V34.0176H88.8008V35.0176ZM88.8008 65V66H89.8008V65H88.8008ZM82.874 65H81.874V66H82.874V65ZM82.874 49.5986L81.8745 49.5683L81.874 49.5835V49.5986H82.874ZM82.9561 46.625L81.9574 46.5724L81.9567 46.5856L81.9564 46.5987L82.9561 46.625ZM83.0176 45.1074L82.0187 45.0599L82.0182 45.0698L82.018 45.0797L83.0176 45.1074ZM83.1611 41.5186L84.1606 41.5515L84.1946 40.5186H83.1611V41.5186ZM82.9971 41.5186V40.5186H82.2546L82.0398 41.2293L82.9971 41.5186ZM75.9014 65V66H76.6438L76.8586 65.2893L75.9014 65ZM70.0566 65L71.0196 64.7305L64.4366 41.208L63.4736 41.4775L62.5106 41.747L69.0936 65.2695L70.0566 65ZM63.4736 41.4775V40.4775H63.2891V41.4775V42.4775H63.4736V41.4775ZM63.2891 41.4775L62.2912 41.5426C62.3728 42.7947 62.4408 44.0052 62.4952 45.1744L63.4941 45.1279L64.4931 45.0815C64.4381 43.8991 64.3694 42.676 64.2869 41.4125L63.2891 41.4775ZM63.4941 45.1279L62.4956 45.1819C62.5224 45.6778 62.5426 46.1879 62.556 46.7122L63.5557 46.6865L64.5553 46.6609C64.5414 46.1187 64.5206 45.5897 64.4927 45.074L63.4941 45.1279ZM63.5557 46.6865L62.557 46.7377C62.5839 47.2629 62.6041 47.7809 62.6175 48.2919L63.6172 48.2656L64.6168 48.2393C64.6029 47.7113 64.5821 47.1766 64.5544 46.6353L63.5557 46.6865ZM63.6172 48.2656L62.6186 48.3182C62.6451 48.8217 62.6582 49.3031 62.6582 49.7627H63.6582H64.6582C64.6582 49.2652 64.644 48.7486 64.6158 48.2131L63.6172 48.2656ZM63.6582 49.7627L62.6586 49.7913C62.6721 50.2625 62.6787 50.6834 62.6787 51.0547H63.6787H64.6787C64.6787 50.6604 64.6717 50.2199 64.6578 49.7341L63.6582 49.7627ZM63.6787 51.0547H62.6787V65H63.6787H64.6787V51.0547H63.6787ZM63.6787 65V64H57.998V65V66H63.6787V65ZM57.998 65H58.998V35.0176H57.998H56.998V65H57.998ZM57.998 35.0176V36.0176H66.6523V35.0176V34.0176H57.998V35.0176ZM66.6523 35.0176L65.69 35.2896L72.1705 58.2173L73.1328 57.9453L74.0951 57.6733L67.6146 34.7456L66.6523 35.0176ZM73.1328 57.9453V58.9453H73.2559V57.9453V56.9453H73.1328V57.9453ZM73.2559 57.9453L74.2135 58.2331L81.1042 35.3054L80.1465 35.0176L79.1888 34.7298L72.2982 57.6575L73.2559 57.9453ZM80.1465 35.0176V36.0176H88.8008V35.0176V34.0176H80.1465V35.0176ZM88.8008 35.0176H87.8008V65H88.8008H89.8008V35.0176H88.8008ZM88.8008 65V64H82.874V65V66H88.8008V65ZM82.874 65H83.874V50.8086H82.874H81.874V65H82.874ZM82.874 50.8086H83.874C83.874 50.8079 83.874 50.8072 83.874 50.8065C83.874 50.8058 83.874 50.8051 83.874 50.8044C83.874 50.8037 83.874 50.803 83.874 50.8023C83.874 50.8016 83.874 50.8009 83.874 50.8003C83.874 50.7996 83.874 50.7989 83.874 50.7982C83.874 50.7975 83.874 50.7968 83.874 50.7961C83.874 50.7954 83.874 50.7947 83.874 50.794C83.874 50.7933 83.874 50.7926 83.874 50.7919C83.874 50.7912 83.874 50.7905 83.874 50.7898C83.874 50.7891 83.874 50.7884 83.874 50.7877C83.874 50.787 83.874 50.7863 83.874 50.7856C83.874 50.7849 83.874 50.7842 83.874 50.7835C83.874 50.7828 83.874 50.7821 83.874 50.7814C83.874 50.7807 83.874 50.78 83.874 50.7793C83.874 50.7786 83.874 50.7779 83.874 50.7772C83.874 50.7765 83.874 50.7758 83.874 50.7751C83.874 50.7744 83.874 50.7737 83.874 50.773C83.874 50.7723 83.874 50.7716 83.874 50.7709C83.874 50.7702 83.874 50.7695 83.874 50.7688C83.874 50.7681 83.874 50.7674 83.874 50.7667C83.874 50.766 83.874 50.7653 83.874 50.7646C83.874 50.7639 83.874 50.7632 83.874 50.7625C83.874 50.7618 83.874 50.7611 83.874 50.7604C83.874 50.7597 83.874 50.759 83.874 50.7583C83.874 50.7576 83.874 50.7569 83.874 50.7562C83.874 50.7555 83.874 50.7548 83.874 50.7541C83.874 50.7534 83.874 50.7527 83.874 50.752C83.874 50.7513 83.874 50.7505 83.874 50.7498C83.874 50.7491 83.874 50.7484 83.874 50.7477C83.874 50.747 83.874 50.7463 83.874 50.7456C83.874 50.7449 83.874 50.7442 83.874 50.7435C83.874 50.7428 83.874 50.7421 83.874 50.7414C83.874 50.7407 83.874 50.74 83.874 50.7393C83.874 50.7386 83.874 50.7379 83.874 50.7371C83.874 50.7364 83.874 50.7357 83.874 50.735C83.874 50.7343 83.874 50.7336 83.874 50.7329C83.874 50.7322 83.874 50.7315 83.874 50.7308C83.874 50.7301 83.874 50.7294 83.874 50.7287C83.874 50.7279 83.874 50.7272 83.874 50.7265C83.874 50.7258 83.874 50.7251 83.874 50.7244C83.874 50.7237 83.874 50.723 83.874 50.7223C83.874 50.7216 83.874 50.7209 83.874 50.7201C83.874 50.7194 83.874 50.7187 83.874 50.718C83.874 50.7173 83.874 50.7166 83.874 50.7159C83.874 50.7152 83.874 50.7145 83.874 50.7138C83.874 50.713 83.874 50.7123 83.874 50.7116C83.874 50.7109 83.874 50.7102 83.874 50.7095C83.874 50.7088 83.874 50.7081 83.874 50.7074C83.874 50.7066 83.874 50.7059 83.874 50.7052C83.874 50.7045 83.874 50.7038 83.874 50.7031C83.874 50.7024 83.874 50.7017 83.874 50.7009C83.874 50.7002 83.874 50.6995 83.874 50.6988C83.874 50.6981 83.874 50.6974 83.874 50.6967C83.874 50.696 83.874 50.6952 83.874 50.6945C83.874 50.6938 83.874 50.6931 83.874 50.6924C83.874 50.6917 83.874 50.691 83.874 50.6902C83.874 50.6895 83.874 50.6888 83.874 50.6881C83.874 50.6874 83.874 50.6867 83.874 50.6859C83.874 50.6852 83.874 50.6845 83.874 50.6838C83.874 50.6831 83.874 50.6824 83.874 50.6817C83.874 50.6809 83.874 50.6802 83.874 50.6795C83.874 50.6788 83.874 50.6781 83.874 50.6774C83.874 50.6766 83.874 50.6759 83.874 50.6752C83.874 50.6745 83.874 50.6738 83.874 50.673C83.874 50.6723 83.874 50.6716 83.874 50.6709C83.874 50.6702 83.874 50.6695 83.874 50.6687C83.874 50.668 83.874 50.6673 83.874 50.6666C83.874 50.6659 83.874 50.6651 83.874 50.6644C83.874 50.6637 83.874 50.663 83.874 50.6623C83.874 50.6616 83.874 50.6608 83.874 50.6601C83.874 50.6594 83.874 50.6587 83.874 50.658C83.874 50.6572 83.874 50.6565 83.874 50.6558C83.874 50.6551 83.874 50.6544 83.874 50.6536C83.874 50.6529 83.874 50.6522 83.874 50.6515C83.874 50.6507 83.874 50.65 83.874 50.6493C83.874 50.6486 83.874 50.6479 83.874 50.6471C83.874 50.6464 83.874 50.6457 83.874 50.645C83.874 50.6442 83.874 50.6435 83.874 50.6428C83.874 50.6421 83.874 50.6414 83.874 50.6406C83.874 50.6399 83.874 50.6392 83.874 50.6385C83.874 50.6377 83.874 50.637 83.874 50.6363C83.874 50.6356 83.874 50.6348 83.874 50.6341C83.874 50.6334 83.874 50.6327 83.874 50.6319C83.874 50.6312 83.874 50.6305 83.874 50.6298C83.874 50.629 83.874 50.6283 83.874 50.6276C83.874 50.6269 83.874 50.6261 83.874 50.6254C83.874 50.6247 83.874 50.624 83.874 50.6232C83.874 50.6225 83.874 50.6218 83.874 50.6211C83.874 50.6203 83.874 50.6196 83.874 50.6189C83.874 50.6182 83.874 50.6174 83.874 50.6167C83.874 50.616 83.874 50.6152 83.874 50.6145C83.874 50.6138 83.874 50.6131 83.874 50.6123C83.874 50.6116 83.874 50.6109 83.874 50.6102C83.874 50.6094 83.874 50.6087 83.874 50.608C83.874 50.6072 83.874 50.6065 83.874 50.6058C83.874 50.6051 83.874 50.6043 83.874 50.6036C83.874 50.6029 83.874 50.6021 83.874 50.6014C83.874 50.6007 83.874 50.5999 83.874 50.5992C83.874 50.5985 83.874 50.5978 83.874 50.597C83.874 50.5963 83.874 50.5956 83.874 50.5948C83.874 50.5941 83.874 50.5934 83.874 50.5926C83.874 50.5919 83.874 50.5912 83.874 50.5904C83.874 50.5897 83.874 50.589 83.874 50.5883C83.874 50.5875 83.874 50.5868 83.874 50.5861C83.874 50.5853 83.874 50.5846 83.874 50.5839C83.874 50.5831 83.874 50.5824 83.874 50.5817C83.874 50.5809 83.874 50.5802 83.874 50.5795C83.874 50.5787 83.874 50.578 83.874 50.5773C83.874 50.5765 83.874 50.5758 83.874 50.5751C83.874 50.5743 83.874 50.5736 83.874 50.5729C83.874 50.5721 83.874 50.5714 83.874 50.5707C83.874 50.5699 83.874 50.5692 83.874 50.5684C83.874 50.5677 83.874 50.567 83.874 50.5662C83.874 50.5655 83.874 50.5648 83.874 50.564C83.874 50.5633 83.874 50.5626 83.874 50.5618C83.874 50.5611 83.874 50.5604 83.874 50.5596C83.874 50.5589 83.874 50.5581 83.874 50.5574C83.874 50.5567 83.874 50.5559 83.874 50.5552C83.874 50.5545 83.874 50.5537 83.874 50.553C83.874 50.5522 83.874 50.5515 83.874 50.5508C83.874 50.55 83.874 50.5493 83.874 50.5486C83.874 50.5478 83.874 50.5471 83.874 50.5463C83.874 50.5456 83.874 50.5449 83.874 50.5441C83.874 50.5434 83.874 50.5426 83.874 50.5419C83.874 50.5412 83.874 50.5404 83.874 50.5397C83.874 50.5389 83.874 50.5382 83.874 50.5375C83.874 50.5367 83.874 50.536 83.874 50.5352C83.874 50.5345 83.874 50.5338 83.874 50.533C83.874 50.5323 83.874 50.5315 83.874 50.5308C83.874 50.5301 83.874 50.5293 83.874 50.5286C83.874 50.5278 83.874 50.5271 83.874 50.5263C83.874 50.5256 83.874 50.5249 83.874 50.5241C83.874 50.5234 83.874 50.5226 83.874 50.5219C83.874 50.5211 83.874 50.5204 83.874 50.5197C83.874 50.5189 83.874 50.5182 83.874 50.5174C83.874 50.5167 83.874 50.5159 83.874 50.5152C83.874 50.5145 83.874 50.5137 83.874 50.513C83.874 50.5122 83.874 50.5115 83.874 50.5107C83.874 50.51 83.874 50.5092 83.874 50.5085C83.874 50.5078 83.874 50.507 83.874 50.5063C83.874 50.5055 83.874 50.5048 83.874 50.504C83.874 50.5033 83.874 50.5025 83.874 50.5018C83.874 50.501 83.874 50.5003 83.874 50.4996C83.874 50.4988 83.874 50.4981 83.874 50.4973C83.874 50.4966 83.874 50.4958 83.874 50.4951C83.874 50.4943 83.874 50.4936 83.874 50.4928C83.874 50.4921 83.874 50.4913 83.874 50.4906C83.874 50.4898 83.874 50.4891 83.874 50.4883C83.874 50.4876 83.874 50.4868 83.874 50.4861C83.874 50.4853 83.874 50.4846 83.874 50.4838C83.874 50.4831 83.874 50.4824 83.874 50.4816C83.874 50.4809 83.874 50.4801 83.874 50.4794C83.874 50.4786 83.874 50.4779 83.874 50.4771C83.874 50.4764 83.874 50.4756 83.874 50.4749C83.874 50.4741 83.874 50.4734 83.874 50.4726C83.874 50.4718 83.874 50.4711 83.874 50.4703C83.874 50.4696 83.874 50.4688 83.874 50.4681C83.874 50.4673 83.874 50.4666 83.874 50.4658C83.874 50.4651 83.874 50.4643 83.874 50.4636C83.874 50.4628 83.874 50.4621 83.874 50.4613C83.874 50.4606 83.874 50.4598 83.874 50.4591C83.874 50.4583 83.874 50.4576 83.874 50.4568C83.874 50.4561 83.874 50.4553 83.874 50.4545C83.874 50.4538 83.874 50.453 83.874 50.4523C83.874 50.4515 83.874 50.4508 83.874 50.45C83.874 50.4493 83.874 50.4485 83.874 50.4478C83.874 50.447 83.874 50.4462 83.874 50.4455C83.874 50.4447 83.874 50.444 83.874 50.4432C83.874 50.4425 83.874 50.4417 83.874 50.441C83.874 50.4402 83.874 50.4394 83.874 50.4387C83.874 50.4379 83.874 50.4372 83.874 50.4364C83.874 50.4357 83.874 50.4349 83.874 50.4341C83.874 50.4334 83.874 50.4326 83.874 50.4319C83.874 50.4311 83.874 50.4304 83.874 50.4296C83.874 50.4288 83.874 50.4281 83.874 50.4273C83.874 50.4266 83.874 50.4258 83.874 50.4251C83.874 50.4243 83.874 50.4235 83.874 50.4228C83.874 50.422 83.874 50.4213 83.874 50.4205C83.874 50.4197 83.874 50.419 83.874 50.4182C83.874 50.4175 83.874 50.4167 83.874 50.4159C83.874 50.4152 83.874 50.4144 83.874 50.4137C83.874 50.4129 83.874 50.4121 83.874 50.4114C83.874 50.4106 83.874 50.4099 83.874 50.4091C83.874 50.4083 83.874 50.4076 83.874 50.4068C83.874 50.4061 83.874 50.4053 83.874 50.4045C83.874 50.4038 83.874 50.403 83.874 50.4022C83.874 50.4015 83.874 50.4007 83.874 50.4C83.874 50.3992 83.874 50.3984 83.874 50.3977C83.874 50.3969 83.874 50.3961 83.874 50.3954C83.874 50.3946 83.874 50.3939 83.874 50.3931C83.874 50.3923 83.874 50.3916 83.874 50.3908C83.874 50.39 83.874 50.3893 83.874 50.3885C83.874 50.3877 83.874 50.387 83.874 50.3862C83.874 50.3854 83.874 50.3847 83.874 50.3839C83.874 50.3832 83.874 50.3824 83.874 50.3816C83.874 50.3809 83.874 50.3801 83.874 50.3793C83.874 50.3786 83.874 50.3778 83.874 50.377C83.874 50.3763 83.874 50.3755 83.874 50.3747C83.874 50.374 83.874 50.3732 83.874 50.3724C83.874 50.3717 83.874 50.3709 83.874 50.3701C83.874 50.3694 83.874 50.3686 83.874 50.3678C83.874 50.3671 83.874 50.3663 83.874 50.3655C83.874 50.3648 83.874 50.364 83.874 50.3632C83.874 50.3624 83.874 50.3617 83.874 50.3609C83.874 50.3601 83.874 50.3594 83.874 50.3586C83.874 50.3578 83.874 50.3571 83.874 50.3563C83.874 50.3555 83.874 50.3548 83.874 50.354C83.874 50.3532 83.874 50.3524 83.874 50.3517C83.874 50.3509 83.874 50.3501 83.874 50.3494C83.874 50.3486 83.874 50.3478 83.874 50.3471C83.874 50.3463 83.874 50.3455 83.874 50.3447C83.874 50.344 83.874 50.3432 83.874 50.3424C83.874 50.3417 83.874 50.3409 83.874 50.3401C83.874 50.3393 83.874 50.3386 83.874 50.3378C83.874 50.337 83.874 50.3362 83.874 50.3355C83.874 50.3347 83.874 50.3339 83.874 50.3332C83.874 50.3324 83.874 50.3316 83.874 50.3308C83.874 50.3301 83.874 50.3293 83.874 50.3285C83.874 50.3277 83.874 50.327 83.874 50.3262C83.874 50.3254 83.874 50.3246 83.874 50.3239C83.874 50.3231 83.874 50.3223 83.874 50.3215C83.874 50.3208 83.874 50.32 83.874 50.3192C83.874 50.3184 83.874 50.3177 83.874 50.3169C83.874 50.3161 83.874 50.3153 83.874 50.3146C83.874 50.3138 83.874 50.313 83.874 50.3122C83.874 50.3115 83.874 50.3107 83.874 50.3099C83.874 50.3091 83.874 50.3084 83.874 50.3076C83.874 50.3068 83.874 50.306 83.874 50.3052C83.874 50.3045 83.874 50.3037 83.874 50.3029C83.874 50.3021 83.874 50.3014 83.874 50.3006C83.874 50.2998 83.874 50.299 83.874 50.2982C83.874 50.2975 83.874 50.2967 83.874 50.2959C83.874 50.2951 83.874 50.2943 83.874 50.2936C83.874 50.2928 83.874 50.292 83.874 50.2912C83.874 50.2904 83.874 50.2897 83.874 50.2889C83.874 50.2881 83.874 50.2873 83.874 50.2865C83.874 50.2858 83.874 50.285 83.874 50.2842C83.874 50.2834 83.874 50.2826 83.874 50.2819C83.874 50.2811 83.874 50.2803 83.874 50.2795C83.874 50.2787 83.874 50.278 83.874 50.2772C83.874 50.2764 83.874 50.2756 83.874 50.2748C83.874 50.274 83.874 50.2733 83.874 50.2725C83.874 50.2717 83.874 50.2709 83.874 50.2701C83.874 50.2693 83.874 50.2686 83.874 50.2678C83.874 50.267 83.874 50.2662 83.874 50.2654C83.874 50.2646 83.874 50.2639 83.874 50.2631C83.874 50.2623 83.874 50.2615 83.874 50.2607C83.874 50.2599 83.874 50.2592 83.874 50.2584C83.874 50.2576 83.874 50.2568 83.874 50.256C83.874 50.2552 83.874 50.2544 83.874 50.2537C83.874 50.2529 83.874 50.2521 83.874 50.2513C83.874 50.2505 83.874 50.2497 83.874 50.2489C83.874 50.2482 83.874 50.2474 83.874 50.2466C83.874 50.2458 83.874 50.245 83.874 50.2442C83.874 50.2434 83.874 50.2427 83.874 50.2419C83.874 50.2411 83.874 50.2403 83.874 50.2395C83.874 50.2387 83.874 50.2379 83.874 50.2371C83.874 50.2364 83.874 50.2356 83.874 50.2348C83.874 50.234 83.874 50.2332 83.874 50.2324C83.874 50.2316 83.874 50.2308 83.874 50.23C83.874 50.2293 83.874 50.2285 83.874 50.2277C83.874 50.2269 83.874 50.2261 83.874 50.2253C83.874 50.2245 83.874 50.2237 83.874 50.2229C83.874 50.2221 83.874 50.2214 83.874 50.2206C83.874 50.2198 83.874 50.219 83.874 50.2182C83.874 50.2174 83.874 50.2166 83.874 50.2158C83.874 50.215 83.874 50.2142 83.874 50.2134C83.874 50.2126 83.874 50.2119 83.874 50.2111C83.874 50.2103 83.874 50.2095 83.874 50.2087C83.874 50.2079 83.874 50.2071 83.874 50.2063C83.874 50.2055 83.874 50.2047 83.874 50.2039C83.874 50.2031 83.874 50.2023 83.874 50.2016C83.874 50.2008 83.874 50.2 83.874 50.1992C83.874 50.1984 83.874 50.1976 83.874 50.1968C83.874 50.196 83.874 50.1952 83.874 50.1944C83.874 50.1936 83.874 50.1928 83.874 50.192C83.874 50.1912 83.874 50.1904 83.874 50.1896C83.874 50.1888 83.874 50.188 83.874 50.1872C83.874 50.1865 83.874 50.1857 83.874 50.1849C83.874 50.1841 83.874 50.1833 83.874 50.1825C83.874 50.1817 83.874 50.1809 83.874 50.1801C83.874 50.1793 83.874 50.1785 83.874 50.1777C83.874 50.1769 83.874 50.1761 83.874 50.1753C83.874 50.1745 83.874 50.1737 83.874 50.1729C83.874 50.1721 83.874 50.1713 83.874 50.1705C83.874 50.1697 83.874 50.1689 83.874 50.1681C83.874 50.1673 83.874 50.1665 83.874 50.1657C83.874 50.1649 83.874 50.1641 83.874 50.1633C83.874 50.1625 83.874 50.1617 83.874 50.1609C83.874 50.1601 83.874 50.1593 83.874 50.1585C83.874 50.1577 83.874 50.1569 83.874 50.1561C83.874 50.1553 83.874 50.1545 83.874 50.1537C83.874 50.1529 83.874 50.1521 83.874 50.1513C83.874 50.1505 83.874 50.1497 83.874 50.1489C83.874 50.1481 83.874 50.1473 83.874 50.1465C83.874 50.1457 83.874 50.1449 83.874 50.1441C83.874 50.1433 83.874 50.1425 83.874 50.1417C83.874 50.1409 83.874 50.1401 83.874 50.1393C83.874 50.1385 83.874 50.1377 83.874 50.1369C83.874 50.1361 83.874 50.1353 83.874 50.1345C83.874 50.1337 83.874 50.1329 83.874 50.132C83.874 50.1312 83.874 50.1304 83.874 50.1296C83.874 50.1288 83.874 50.128 83.874 50.1272C83.874 50.1264 83.874 50.1256 83.874 50.1248C83.874 50.124 83.874 50.1232 83.874 50.1224C83.874 50.1216 83.874 50.1208 83.874 50.12C83.874 50.1192 83.874 50.1184 83.874 50.1176C83.874 50.1167 83.874 50.1159 83.874 50.1151C83.874 50.1143 83.874 50.1135 83.874 50.1127C83.874 50.1119 83.874 50.1111 83.874 50.1103C83.874 50.1095 83.874 50.1087 83.874 50.1079C83.874 50.1071 83.874 50.1063 83.874 50.1054C83.874 50.1046 83.874 50.1038 83.874 50.103C83.874 50.1022 83.874 50.1014 83.874 50.1006C83.874 50.0998 83.874 50.099 83.874 50.0982C83.874 50.0974 83.874 50.0965 83.874 50.0957C83.874 50.0949 83.874 50.0941 83.874 50.0933C83.874 50.0925 83.874 50.0917 83.874 50.0909C83.874 50.0901 83.874 50.0893 83.874 50.0884C83.874 50.0876 83.874 50.0868 83.874 50.086C83.874 50.0852 83.874 50.0844 83.874 50.0836C83.874 50.0828 83.874 50.082 83.874 50.0811C83.874 50.0803 83.874 50.0795 83.874 50.0787C83.874 50.0779 83.874 50.0771 83.874 50.0763C83.874 50.0755 83.874 50.0746 83.874 50.0738C83.874 50.073 83.874 50.0722 83.874 50.0714C83.874 50.0706 83.874 50.0698 83.874 50.069C83.874 50.0681 83.874 50.0673 83.874 50.0665C83.874 50.0657 83.874 50.0649 83.874 50.0641C83.874 50.0633 83.874 50.0624 83.874 50.0616C83.874 50.0608 83.874 50.06 83.874 50.0592C83.874 50.0584 83.874 50.0576 83.874 50.0567C83.874 50.0559 83.874 50.0551 83.874 50.0543C83.874 50.0535 83.874 50.0527 83.874 50.0518C83.874 50.051 83.874 50.0502 83.874 50.0494C83.874 50.0486 83.874 50.0478 83.874 50.0469C83.874 50.0461 83.874 50.0453 83.874 50.0445C83.874 50.0437 83.874 50.0429 83.874 50.042C83.874 50.0412 83.874 50.0404 83.874 50.0396C83.874 50.0388 83.874 50.0379 83.874 50.0371C83.874 50.0363 83.874 50.0355 83.874 50.0347C83.874 50.0339 83.874 50.033 83.874 50.0322C83.874 50.0314 83.874 50.0306 83.874 50.0298C83.874 50.0289 83.874 50.0281 83.874 50.0273C83.874 50.0265 83.874 50.0257 83.874 50.0248C83.874 50.024 83.874 50.0232 83.874 50.0224C83.874 50.0216 83.874 50.0207 83.874 50.0199C83.874 50.0191 83.874 50.0183 83.874 50.0175C83.874 50.0166 83.874 50.0158 83.874 50.015C83.874 50.0142 83.874 50.0133 83.874 50.0125C83.874 50.0117 83.874 50.0109 83.874 50.0101C83.874 50.0092 83.874 50.0084 83.874 50.0076C83.874 50.0068 83.874 50.0059 83.874 50.0051C83.874 50.0043 83.874 50.0035 83.874 50.0026C83.874 50.0018 83.874 50.001 83.874 50.0002C83.874 49.9994 83.874 49.9985 83.874 49.9977C83.874 49.9969 83.874 49.9961 83.874 49.9952C83.874 49.9944 83.874 49.9936 83.874 49.9928C83.874 49.9919 83.874 49.9911 83.874 49.9903C83.874 49.9895 83.874 49.9886 83.874 49.9878C83.874 49.987 83.874 49.9862 83.874 49.9853C83.874 49.9845 83.874 49.9837 83.874 49.9828C83.874 49.982 83.874 49.9812 83.874 49.9804C83.874 49.9795 83.874 49.9787 83.874 49.9779C83.874 49.9771 83.874 49.9762 83.874 49.9754C83.874 49.9746 83.874 49.9738 83.874 49.9729C83.874 49.9721 83.874 49.9713 83.874 49.9704C83.874 49.9696 83.874 49.9688 83.874 49.968C83.874 49.9671 83.874 49.9663 83.874 49.9655C83.874 49.9646 83.874 49.9638 83.874 49.963C83.874 49.9622 83.874 49.9613 83.874 49.9605C83.874 49.9597 83.874 49.9588 83.874 49.958C83.874 49.9572 83.874 49.9563 83.874 49.9555C83.874 49.9547 83.874 49.9538 83.874 49.953C83.874 49.9522 83.874 49.9514 83.874 49.9505C83.874 49.9497 83.874 49.9489 83.874 49.948C83.874 49.9472 83.874 49.9464 83.874 49.9455C83.874 49.9447 83.874 49.9439 83.874 49.943C83.874 49.9422 83.874 49.9414 83.874 49.9405C83.874 49.9397 83.874 49.9389 83.874 49.938C83.874 49.9372 83.874 49.9364 83.874 49.9355C83.874 49.9347 83.874 49.9339 83.874 49.933C83.874 49.9322 83.874 49.9314 83.874 49.9305C83.874 49.9297 83.874 49.9289 83.874 49.928C83.874 49.9272 83.874 49.9264 83.874 49.9255C83.874 49.9247 83.874 49.9239 83.874 49.923C83.874 49.9222 83.874 49.9214 83.874 49.9205C83.874 49.9197 83.874 49.9189 83.874 49.918C83.874 49.9172 83.874 49.9163 83.874 49.9155C83.874 49.9147 83.874 49.9138 83.874 49.913C83.874 49.9122 83.874 49.9113 83.874 49.9105C83.874 49.9097 83.874 49.9088 83.874 49.908C83.874 49.9071 83.874 49.9063 83.874 49.9055C83.874 49.9046 83.874 49.9038 83.874 49.903C83.874 49.9021 83.874 49.9013 83.874 49.9004C83.874 49.8996 83.874 49.8988 83.874 49.8979C83.874 49.8971 83.874 49.8962 83.874 49.8954C83.874 49.8946 83.874 49.8937 83.874 49.8929C83.874 49.892 83.874 49.8912 83.874 49.8904C83.874 49.8895 83.874 49.8887 83.874 49.8878C83.874 49.887 83.874 49.8862 83.874 49.8853C83.874 49.8845 83.874 49.8836 83.874 49.8828C83.874 49.882 83.874 49.8811 83.874 49.8803C83.874 49.8794 83.874 49.8786 83.874 49.8778C83.874 49.8769 83.874 49.8761 83.874 49.8752C83.874 49.8744 83.874 49.8735 83.874 49.8727C83.874 49.8719 83.874 49.871 83.874 49.8702C83.874 49.8693 83.874 49.8685 83.874 49.8676C83.874 49.8668 83.874 49.866 83.874 49.8651C83.874 49.8643 83.874 49.8634 83.874 49.8626C83.874 49.8617 83.874 49.8609 83.874 49.86C83.874 49.8592 83.874 49.8584 83.874 49.8575C83.874 49.8567 83.874 49.8558 83.874 49.855C83.874 49.8541 83.874 49.8533 83.874 49.8524C83.874 49.8516 83.874 49.8508 83.874 49.8499C83.874 49.8491 83.874 49.8482 83.874 49.8474C83.874 49.8465 83.874 49.8457 83.874 49.8448C83.874 49.844 83.874 49.8431 83.874 49.8423C83.874 49.8414 83.874 49.8406 83.874 49.8397C83.874 49.8389 83.874 49.8381 83.874 49.8372C83.874 49.8364 83.874 49.8355 83.874 49.8347C83.874 49.8338 83.874 49.833 83.874 49.8321C83.874 49.8313 83.874 49.8304 83.874 49.8296C83.874 49.8287 83.874 49.8279 83.874 49.827C83.874 49.8262 83.874 49.8253 83.874 49.8245C83.874 49.8236 83.874 49.8228 83.874 49.8219C83.874 49.8211 83.874 49.8202 83.874 49.8194C83.874 49.8185 83.874 49.8177 83.874 49.8168C83.874 49.816 83.874 49.8151 83.874 49.8143C83.874 49.8134 83.874 49.8126 83.874 49.8117C83.874 49.8109 83.874 49.81 83.874 49.8092C83.874 49.8083 83.874 49.8075 83.874 49.8066C83.874 49.8058 83.874 49.8049 83.874 49.8041C83.874 49.8032 83.874 49.8024 83.874 49.8015C83.874 49.8006 83.874 49.7998 83.874 49.7989C83.874 49.7981 83.874 49.7972 83.874 49.7964C83.874 49.7955 83.874 49.7947 83.874 49.7938C83.874 49.793 83.874 49.7921 83.874 49.7913C83.874 49.7904 83.874 49.7896 83.874 49.7887C83.874 49.7878 83.874 49.787 83.874 49.7861C83.874 49.7853 83.874 49.7844 83.874 49.7836C83.874 49.7827 83.874 49.7819 83.874 49.781C83.874 49.7801 83.874 49.7793 83.874 49.7784C83.874 49.7776 83.874 49.7767 83.874 49.7759C83.874 49.775 83.874 49.7742 83.874 49.7733C83.874 49.7724 83.874 49.7716 83.874 49.7707C83.874 49.7699 83.874 49.769 83.874 49.7682C83.874 49.7673 83.874 49.7664 83.874 49.7656C83.874 49.7647 83.874 49.7639 83.874 49.763C83.874 49.7621 83.874 49.7613 83.874 49.7604C83.874 49.7596 83.874 49.7587 83.874 49.7579C83.874 49.757 83.874 49.7561 83.874 49.7553C83.874 49.7544 83.874 49.7536 83.874 49.7527C83.874 49.7518 83.874 49.751 83.874 49.7501C83.874 49.7493 83.874 49.7484 83.874 49.7475C83.874 49.7467 83.874 49.7458 83.874 49.745C83.874 49.7441 83.874 49.7432 83.874 49.7424C83.874 49.7415 83.874 49.7407 83.874 49.7398C83.874 49.7389 83.874 49.7381 83.874 49.7372C83.874 49.7363 83.874 49.7355 83.874 49.7346C83.874 49.7338 83.874 49.7329 83.874 49.732C83.874 49.7312 83.874 49.7303 83.874 49.7294C83.874 49.7286 83.874 49.7277 83.874 49.7269C83.874 49.726 83.874 49.7251 83.874 49.7243C83.874 49.7234 83.874 49.7225 83.874 49.7217C83.874 49.7208 83.874 49.7199 83.874 49.7191C83.874 49.7182 83.874 49.7173 83.874 49.7165C83.874 49.7156 83.874 49.7148 83.874 49.7139C83.874 49.713 83.874 49.7122 83.874 49.7113C83.874 49.7104 83.874 49.7096 83.874 49.7087C83.874 49.7078 83.874 49.707 83.874 49.7061C83.874 49.7052 83.874 49.7044 83.874 49.7035C83.874 49.7026 83.874 49.7018 83.874 49.7009C83.874 49.7 83.874 49.6992 83.874 49.6983C83.874 49.6974 83.874 49.6966 83.874 49.6957C83.874 49.6948 83.874 49.694 83.874 49.6931C83.874 49.6922 83.874 49.6914 83.874 49.6905C83.874 49.6896 83.874 49.6888 83.874 49.6879C83.874 49.687 83.874 49.6861 83.874 49.6853C83.874 49.6844 83.874 49.6835 83.874 49.6827C83.874 49.6818 83.874 49.6809 83.874 49.6801C83.874 49.6792 83.874 49.6783 83.874 49.6774C83.874 49.6766 83.874 49.6757 83.874 49.6748C83.874 49.674 83.874 49.6731 83.874 49.6722C83.874 49.6714 83.874 49.6705 83.874 49.6696C83.874 49.6687 83.874 49.6679 83.874 49.667C83.874 49.6661 83.874 49.6653 83.874 49.6644C83.874 49.6635 83.874 49.6626 83.874 49.6618C83.874 49.6609 83.874 49.66 83.874 49.6591C83.874 49.6583 83.874 49.6574 83.874 49.6565C83.874 49.6557 83.874 49.6548 83.874 49.6539C83.874 49.653 83.874 49.6522 83.874 49.6513C83.874 49.6504 83.874 49.6495 83.874 49.6487C83.874 49.6478 83.874 49.6469 83.874 49.646C83.874 49.6452 83.874 49.6443 83.874 49.6434C83.874 49.6425 83.874 49.6417 83.874 49.6408C83.874 49.6399 83.874 49.639 83.874 49.6382C83.874 49.6373 83.874 49.6364 83.874 49.6355C83.874 49.6347 83.874 49.6338 83.874 49.6329C83.874 49.632 83.874 49.6312 83.874 49.6303C83.874 49.6294 83.874 49.6285 83.874 49.6276C83.874 49.6268 83.874 49.6259 83.874 49.625C83.874 49.6241 83.874 49.6233 83.874 49.6224C83.874 49.6215 83.874 49.6206 83.874 49.6197C83.874 49.6189 83.874 49.618 83.874 49.6171C83.874 49.6162 83.874 49.6154 83.874 49.6145C83.874 49.6136 83.874 49.6127 83.874 49.6118C83.874 49.611 83.874 49.6101 83.874 49.6092C83.874 49.6083 83.874 49.6074 83.874 49.6066C83.874 49.6057 83.874 49.6048 83.874 49.6039C83.874 49.603 83.874 49.6022 83.874 49.6013C83.874 49.6004 83.874 49.5995 83.874 49.5986H82.874H81.874C81.874 49.5995 81.874 49.6004 81.874 49.6013C81.874 49.6022 81.874 49.603 81.874 49.6039C81.874 49.6048 81.874 49.6057 81.874 49.6066C81.874 49.6074 81.874 49.6083 81.874 49.6092C81.874 49.6101 81.874 49.611 81.874 49.6118C81.874 49.6127 81.874 49.6136 81.874 49.6145C81.874 49.6154 81.874 49.6162 81.874 49.6171C81.874 49.618 81.874 49.6189 81.874 49.6197C81.874 49.6206 81.874 49.6215 81.874 49.6224C81.874 49.6233 81.874 49.6241 81.874 49.625C81.874 49.6259 81.874 49.6268 81.874 49.6276C81.874 49.6285 81.874 49.6294 81.874 49.6303C81.874 49.6312 81.874 49.632 81.874 49.6329C81.874 49.6338 81.874 49.6347 81.874 49.6355C81.874 49.6364 81.874 49.6373 81.874 49.6382C81.874 49.639 81.874 49.6399 81.874 49.6408C81.874 49.6417 81.874 49.6425 81.874 49.6434C81.874 49.6443 81.874 49.6452 81.874 49.646C81.874 49.6469 81.874 49.6478 81.874 49.6487C81.874 49.6495 81.874 49.6504 81.874 49.6513C81.874 49.6522 81.874 49.653 81.874 49.6539C81.874 49.6548 81.874 49.6557 81.874 49.6565C81.874 49.6574 81.874 49.6583 81.874 49.6591C81.874 49.66 81.874 49.6609 81.874 49.6618C81.874 49.6626 81.874 49.6635 81.874 49.6644C81.874 49.6653 81.874 49.6661 81.874 49.667C81.874 49.6679 81.874 49.6687 81.874 49.6696C81.874 49.6705 81.874 49.6714 81.874 49.6722C81.874 49.6731 81.874 49.674 81.874 49.6748C81.874 49.6757 81.874 49.6766 81.874 49.6774C81.874 49.6783 81.874 49.6792 81.874 49.6801C81.874 49.6809 81.874 49.6818 81.874 49.6827C81.874 49.6835 81.874 49.6844 81.874 49.6853C81.874 49.6861 81.874 49.687 81.874 49.6879C81.874 49.6888 81.874 49.6896 81.874 49.6905C81.874 49.6914 81.874 49.6922 81.874 49.6931C81.874 49.694 81.874 49.6948 81.874 49.6957C81.874 49.6966 81.874 49.6974 81.874 49.6983C81.874 49.6992 81.874 49.7 81.874 49.7009C81.874 49.7018 81.874 49.7026 81.874 49.7035C81.874 49.7044 81.874 49.7052 81.874 49.7061C81.874 49.707 81.874 49.7078 81.874 49.7087C81.874 49.7096 81.874 49.7104 81.874 49.7113C81.874 49.7122 81.874 49.713 81.874 49.7139C81.874 49.7148 81.874 49.7156 81.874 49.7165C81.874 49.7173 81.874 49.7182 81.874 49.7191C81.874 49.7199 81.874 49.7208 81.874 49.7217C81.874 49.7225 81.874 49.7234 81.874 49.7243C81.874 49.7251 81.874 49.726 81.874 49.7269C81.874 49.7277 81.874 49.7286 81.874 49.7294C81.874 49.7303 81.874 49.7312 81.874 49.732C81.874 49.7329 81.874 49.7338 81.874 49.7346C81.874 49.7355 81.874 49.7363 81.874 49.7372C81.874 49.7381 81.874 49.7389 81.874 49.7398C81.874 49.7407 81.874 49.7415 81.874 49.7424C81.874 49.7432 81.874 49.7441 81.874 49.745C81.874 49.7458 81.874 49.7467 81.874 49.7475C81.874 49.7484 81.874 49.7493 81.874 49.7501C81.874 49.751 81.874 49.7518 81.874 49.7527C81.874 49.7536 81.874 49.7544 81.874 49.7553C81.874 49.7561 81.874 49.757 81.874 49.7579C81.874 49.7587 81.874 49.7596 81.874 49.7604C81.874 49.7613 81.874 49.7621 81.874 49.763C81.874 49.7639 81.874 49.7647 81.874 49.7656C81.874 49.7664 81.874 49.7673 81.874 49.7682C81.874 49.769 81.874 49.7699 81.874 49.7707C81.874 49.7716 81.874 49.7724 81.874 49.7733C81.874 49.7742 81.874 49.775 81.874 49.7759C81.874 49.7767 81.874 49.7776 81.874 49.7784C81.874 49.7793 81.874 49.7801 81.874 49.781C81.874 49.7819 81.874 49.7827 81.874 49.7836C81.874 49.7844 81.874 49.7853 81.874 49.7861C81.874 49.787 81.874 49.7878 81.874 49.7887C81.874 49.7896 81.874 49.7904 81.874 49.7913C81.874 49.7921 81.874 49.793 81.874 49.7938C81.874 49.7947 81.874 49.7955 81.874 49.7964C81.874 49.7972 81.874 49.7981 81.874 49.7989C81.874 49.7998 81.874 49.8006 81.874 49.8015C81.874 49.8024 81.874 49.8032 81.874 49.8041C81.874 49.8049 81.874 49.8058 81.874 49.8066C81.874 49.8075 81.874 49.8083 81.874 49.8092C81.874 49.81 81.874 49.8109 81.874 49.8117C81.874 49.8126 81.874 49.8134 81.874 49.8143C81.874 49.8151 81.874 49.816 81.874 49.8168C81.874 49.8177 81.874 49.8185 81.874 49.8194C81.874 49.8202 81.874 49.8211 81.874 49.8219C81.874 49.8228 81.874 49.8236 81.874 49.8245C81.874 49.8253 81.874 49.8262 81.874 49.827C81.874 49.8279 81.874 49.8287 81.874 49.8296C81.874 49.8304 81.874 49.8313 81.874 49.8321C81.874 49.833 81.874 49.8338 81.874 49.8347C81.874 49.8355 81.874 49.8364 81.874 49.8372C81.874 49.8381 81.874 49.8389 81.874 49.8397C81.874 49.8406 81.874 49.8414 81.874 49.8423C81.874 49.8431 81.874 49.844 81.874 49.8448C81.874 49.8457 81.874 49.8465 81.874 49.8474C81.874 49.8482 81.874 49.8491 81.874 49.8499C81.874 49.8508 81.874 49.8516 81.874 49.8524C81.874 49.8533 81.874 49.8541 81.874 49.855C81.874 49.8558 81.874 49.8567 81.874 49.8575C81.874 49.8584 81.874 49.8592 81.874 49.86C81.874 49.8609 81.874 49.8617 81.874 49.8626C81.874 49.8634 81.874 49.8643 81.874 49.8651C81.874 49.866 81.874 49.8668 81.874 49.8676C81.874 49.8685 81.874 49.8693 81.874 49.8702C81.874 49.871 81.874 49.8719 81.874 49.8727C81.874 49.8735 81.874 49.8744 81.874 49.8752C81.874 49.8761 81.874 49.8769 81.874 49.8778C81.874 49.8786 81.874 49.8794 81.874 49.8803C81.874 49.8811 81.874 49.882 81.874 49.8828C81.874 49.8836 81.874 49.8845 81.874 49.8853C81.874 49.8862 81.874 49.887 81.874 49.8878C81.874 49.8887 81.874 49.8895 81.874 49.8904C81.874 49.8912 81.874 49.892 81.874 49.8929C81.874 49.8937 81.874 49.8946 81.874 49.8954C81.874 49.8962 81.874 49.8971 81.874 49.8979C81.874 49.8988 81.874 49.8996 81.874 49.9004C81.874 49.9013 81.874 49.9021 81.874 49.903C81.874 49.9038 81.874 49.9046 81.874 49.9055C81.874 49.9063 81.874 49.9071 81.874 49.908C81.874 49.9088 81.874 49.9097 81.874 49.9105C81.874 49.9113 81.874 49.9122 81.874 49.913C81.874 49.9138 81.874 49.9147 81.874 49.9155C81.874 49.9163 81.874 49.9172 81.874 49.918C81.874 49.9189 81.874 49.9197 81.874 49.9205C81.874 49.9214 81.874 49.9222 81.874 49.923C81.874 49.9239 81.874 49.9247 81.874 49.9255C81.874 49.9264 81.874 49.9272 81.874 49.928C81.874 49.9289 81.874 49.9297 81.874 49.9305C81.874 49.9314 81.874 49.9322 81.874 49.933C81.874 49.9339 81.874 49.9347 81.874 49.9355C81.874 49.9364 81.874 49.9372 81.874 49.938C81.874 49.9389 81.874 49.9397 81.874 49.9405C81.874 49.9414 81.874 49.9422 81.874 49.943C81.874 49.9439 81.874 49.9447 81.874 49.9455C81.874 49.9464 81.874 49.9472 81.874 49.948C81.874 49.9489 81.874 49.9497 81.874 49.9505C81.874 49.9514 81.874 49.9522 81.874 49.953C81.874 49.9538 81.874 49.9547 81.874 49.9555C81.874 49.9563 81.874 49.9572 81.874 49.958C81.874 49.9588 81.874 49.9597 81.874 49.9605C81.874 49.9613 81.874 49.9622 81.874 49.963C81.874 49.9638 81.874 49.9646 81.874 49.9655C81.874 49.9663 81.874 49.9671 81.874 49.968C81.874 49.9688 81.874 49.9696 81.874 49.9704C81.874 49.9713 81.874 49.9721 81.874 49.9729C81.874 49.9738 81.874 49.9746 81.874 49.9754C81.874 49.9762 81.874 49.9771 81.874 49.9779C81.874 49.9787 81.874 49.9795 81.874 49.9804C81.874 49.9812 81.874 49.982 81.874 49.9828C81.874 49.9837 81.874 49.9845 81.874 49.9853C81.874 49.9862 81.874 49.987 81.874 49.9878C81.874 49.9886 81.874 49.9895 81.874 49.9903C81.874 49.9911 81.874 49.9919 81.874 49.9928C81.874 49.9936 81.874 49.9944 81.874 49.9952C81.874 49.9961 81.874 49.9969 81.874 49.9977C81.874 49.9985 81.874 49.9994 81.874 50.0002C81.874 50.001 81.874 50.0018 81.874 50.0026C81.874 50.0035 81.874 50.0043 81.874 50.0051C81.874 50.0059 81.874 50.0068 81.874 50.0076C81.874 50.0084 81.874 50.0092 81.874 50.0101C81.874 50.0109 81.874 50.0117 81.874 50.0125C81.874 50.0133 81.874 50.0142 81.874 50.015C81.874 50.0158 81.874 50.0166 81.874 50.0175C81.874 50.0183 81.874 50.0191 81.874 50.0199C81.874 50.0207 81.874 50.0216 81.874 50.0224C81.874 50.0232 81.874 50.024 81.874 50.0248C81.874 50.0257 81.874 50.0265 81.874 50.0273C81.874 50.0281 81.874 50.0289 81.874 50.0298C81.874 50.0306 81.874 50.0314 81.874 50.0322C81.874 50.033 81.874 50.0339 81.874 50.0347C81.874 50.0355 81.874 50.0363 81.874 50.0371C81.874 50.0379 81.874 50.0388 81.874 50.0396C81.874 50.0404 81.874 50.0412 81.874 50.042C81.874 50.0429 81.874 50.0437 81.874 50.0445C81.874 50.0453 81.874 50.0461 81.874 50.0469C81.874 50.0478 81.874 50.0486 81.874 50.0494C81.874 50.0502 81.874 50.051 81.874 50.0518C81.874 50.0527 81.874 50.0535 81.874 50.0543C81.874 50.0551 81.874 50.0559 81.874 50.0567C81.874 50.0576 81.874 50.0584 81.874 50.0592C81.874 50.06 81.874 50.0608 81.874 50.0616C81.874 50.0624 81.874 50.0633 81.874 50.0641C81.874 50.0649 81.874 50.0657 81.874 50.0665C81.874 50.0673 81.874 50.0681 81.874 50.069C81.874 50.0698 81.874 50.0706 81.874 50.0714C81.874 50.0722 81.874 50.073 81.874 50.0738C81.874 50.0746 81.874 50.0755 81.874 50.0763C81.874 50.0771 81.874 50.0779 81.874 50.0787C81.874 50.0795 81.874 50.0803 81.874 50.0811C81.874 50.082 81.874 50.0828 81.874 50.0836C81.874 50.0844 81.874 50.0852 81.874 50.086C81.874 50.0868 81.874 50.0876 81.874 50.0884C81.874 50.0893 81.874 50.0901 81.874 50.0909C81.874 50.0917 81.874 50.0925 81.874 50.0933C81.874 50.0941 81.874 50.0949 81.874 50.0957C81.874 50.0965 81.874 50.0974 81.874 50.0982C81.874 50.099 81.874 50.0998 81.874 50.1006C81.874 50.1014 81.874 50.1022 81.874 50.103C81.874 50.1038 81.874 50.1046 81.874 50.1054C81.874 50.1063 81.874 50.1071 81.874 50.1079C81.874 50.1087 81.874 50.1095 81.874 50.1103C81.874 50.1111 81.874 50.1119 81.874 50.1127C81.874 50.1135 81.874 50.1143 81.874 50.1151C81.874 50.1159 81.874 50.1167 81.874 50.1176C81.874 50.1184 81.874 50.1192 81.874 50.12C81.874 50.1208 81.874 50.1216 81.874 50.1224C81.874 50.1232 81.874 50.124 81.874 50.1248C81.874 50.1256 81.874 50.1264 81.874 50.1272C81.874 50.128 81.874 50.1288 81.874 50.1296C81.874 50.1304 81.874 50.1312 81.874 50.132C81.874 50.1329 81.874 50.1337 81.874 50.1345C81.874 50.1353 81.874 50.1361 81.874 50.1369C81.874 50.1377 81.874 50.1385 81.874 50.1393C81.874 50.1401 81.874 50.1409 81.874 50.1417C81.874 50.1425 81.874 50.1433 81.874 50.1441C81.874 50.1449 81.874 50.1457 81.874 50.1465C81.874 50.1473 81.874 50.1481 81.874 50.1489C81.874 50.1497 81.874 50.1505 81.874 50.1513C81.874 50.1521 81.874 50.1529 81.874 50.1537C81.874 50.1545 81.874 50.1553 81.874 50.1561C81.874 50.1569 81.874 50.1577 81.874 50.1585C81.874 50.1593 81.874 50.1601 81.874 50.1609C81.874 50.1617 81.874 50.1625 81.874 50.1633C81.874 50.1641 81.874 50.1649 81.874 50.1657C81.874 50.1665 81.874 50.1673 81.874 50.1681C81.874 50.1689 81.874 50.1697 81.874 50.1705C81.874 50.1713 81.874 50.1721 81.874 50.1729C81.874 50.1737 81.874 50.1745 81.874 50.1753C81.874 50.1761 81.874 50.1769 81.874 50.1777C81.874 50.1785 81.874 50.1793 81.874 50.1801C81.874 50.1809 81.874 50.1817 81.874 50.1825C81.874 50.1833 81.874 50.1841 81.874 50.1849C81.874 50.1857 81.874 50.1865 81.874 50.1872C81.874 50.188 81.874 50.1888 81.874 50.1896C81.874 50.1904 81.874 50.1912 81.874 50.192C81.874 50.1928 81.874 50.1936 81.874 50.1944C81.874 50.1952 81.874 50.196 81.874 50.1968C81.874 50.1976 81.874 50.1984 81.874 50.1992C81.874 50.2 81.874 50.2008 81.874 50.2016C81.874 50.2023 81.874 50.2031 81.874 50.2039C81.874 50.2047 81.874 50.2055 81.874 50.2063C81.874 50.2071 81.874 50.2079 81.874 50.2087C81.874 50.2095 81.874 50.2103 81.874 50.2111C81.874 50.2119 81.874 50.2126 81.874 50.2134C81.874 50.2142 81.874 50.215 81.874 50.2158C81.874 50.2166 81.874 50.2174 81.874 50.2182C81.874 50.219 81.874 50.2198 81.874 50.2206C81.874 50.2214 81.874 50.2221 81.874 50.2229C81.874 50.2237 81.874 50.2245 81.874 50.2253C81.874 50.2261 81.874 50.2269 81.874 50.2277C81.874 50.2285 81.874 50.2293 81.874 50.23C81.874 50.2308 81.874 50.2316 81.874 50.2324C81.874 50.2332 81.874 50.234 81.874 50.2348C81.874 50.2356 81.874 50.2364 81.874 50.2371C81.874 50.2379 81.874 50.2387 81.874 50.2395C81.874 50.2403 81.874 50.2411 81.874 50.2419C81.874 50.2427 81.874 50.2434 81.874 50.2442C81.874 50.245 81.874 50.2458 81.874 50.2466C81.874 50.2474 81.874 50.2482 81.874 50.2489C81.874 50.2497 81.874 50.2505 81.874 50.2513C81.874 50.2521 81.874 50.2529 81.874 50.2537C81.874 50.2544 81.874 50.2552 81.874 50.256C81.874 50.2568 81.874 50.2576 81.874 50.2584C81.874 50.2592 81.874 50.2599 81.874 50.2607C81.874 50.2615 81.874 50.2623 81.874 50.2631C81.874 50.2639 81.874 50.2646 81.874 50.2654C81.874 50.2662 81.874 50.267 81.874 50.2678C81.874 50.2686 81.874 50.2693 81.874 50.2701C81.874 50.2709 81.874 50.2717 81.874 50.2725C81.874 50.2733 81.874 50.274 81.874 50.2748C81.874 50.2756 81.874 50.2764 81.874 50.2772C81.874 50.278 81.874 50.2787 81.874 50.2795C81.874 50.2803 81.874 50.2811 81.874 50.2819C81.874 50.2826 81.874 50.2834 81.874 50.2842C81.874 50.285 81.874 50.2858 81.874 50.2865C81.874 50.2873 81.874 50.2881 81.874 50.2889C81.874 50.2897 81.874 50.2904 81.874 50.2912C81.874 50.292 81.874 50.2928 81.874 50.2936C81.874 50.2943 81.874 50.2951 81.874 50.2959C81.874 50.2967 81.874 50.2975 81.874 50.2982C81.874 50.299 81.874 50.2998 81.874 50.3006C81.874 50.3014 81.874 50.3021 81.874 50.3029C81.874 50.3037 81.874 50.3045 81.874 50.3052C81.874 50.306 81.874 50.3068 81.874 50.3076C81.874 50.3084 81.874 50.3091 81.874 50.3099C81.874 50.3107 81.874 50.3115 81.874 50.3122C81.874 50.313 81.874 50.3138 81.874 50.3146C81.874 50.3153 81.874 50.3161 81.874 50.3169C81.874 50.3177 81.874 50.3184 81.874 50.3192C81.874 50.32 81.874 50.3208 81.874 50.3215C81.874 50.3223 81.874 50.3231 81.874 50.3239C81.874 50.3246 81.874 50.3254 81.874 50.3262C81.874 50.327 81.874 50.3277 81.874 50.3285C81.874 50.3293 81.874 50.3301 81.874 50.3308C81.874 50.3316 81.874 50.3324 81.874 50.3332C81.874 50.3339 81.874 50.3347 81.874 50.3355C81.874 50.3362 81.874 50.337 81.874 50.3378C81.874 50.3386 81.874 50.3393 81.874 50.3401C81.874 50.3409 81.874 50.3417 81.874 50.3424C81.874 50.3432 81.874 50.344 81.874 50.3447C81.874 50.3455 81.874 50.3463 81.874 50.3471C81.874 50.3478 81.874 50.3486 81.874 50.3494C81.874 50.3501 81.874 50.3509 81.874 50.3517C81.874 50.3524 81.874 50.3532 81.874 50.354C81.874 50.3548 81.874 50.3555 81.874 50.3563C81.874 50.3571 81.874 50.3578 81.874 50.3586C81.874 50.3594 81.874 50.3601 81.874 50.3609C81.874 50.3617 81.874 50.3624 81.874 50.3632C81.874 50.364 81.874 50.3648 81.874 50.3655C81.874 50.3663 81.874 50.3671 81.874 50.3678C81.874 50.3686 81.874 50.3694 81.874 50.3701C81.874 50.3709 81.874 50.3717 81.874 50.3724C81.874 50.3732 81.874 50.374 81.874 50.3747C81.874 50.3755 81.874 50.3763 81.874 50.377C81.874 50.3778 81.874 50.3786 81.874 50.3793C81.874 50.3801 81.874 50.3809 81.874 50.3816C81.874 50.3824 81.874 50.3832 81.874 50.3839C81.874 50.3847 81.874 50.3854 81.874 50.3862C81.874 50.387 81.874 50.3877 81.874 50.3885C81.874 50.3893 81.874 50.39 81.874 50.3908C81.874 50.3916 81.874 50.3923 81.874 50.3931C81.874 50.3939 81.874 50.3946 81.874 50.3954C81.874 50.3961 81.874 50.3969 81.874 50.3977C81.874 50.3984 81.874 50.3992 81.874 50.4C81.874 50.4007 81.874 50.4015 81.874 50.4022C81.874 50.403 81.874 50.4038 81.874 50.4045C81.874 50.4053 81.874 50.4061 81.874 50.4068C81.874 50.4076 81.874 50.4083 81.874 50.4091C81.874 50.4099 81.874 50.4106 81.874 50.4114C81.874 50.4121 81.874 50.4129 81.874 50.4137C81.874 50.4144 81.874 50.4152 81.874 50.4159C81.874 50.4167 81.874 50.4175 81.874 50.4182C81.874 50.419 81.874 50.4197 81.874 50.4205C81.874 50.4213 81.874 50.422 81.874 50.4228C81.874 50.4235 81.874 50.4243 81.874 50.4251C81.874 50.4258 81.874 50.4266 81.874 50.4273C81.874 50.4281 81.874 50.4288 81.874 50.4296C81.874 50.4304 81.874 50.4311 81.874 50.4319C81.874 50.4326 81.874 50.4334 81.874 50.4341C81.874 50.4349 81.874 50.4357 81.874 50.4364C81.874 50.4372 81.874 50.4379 81.874 50.4387C81.874 50.4394 81.874 50.4402 81.874 50.441C81.874 50.4417 81.874 50.4425 81.874 50.4432C81.874 50.444 81.874 50.4447 81.874 50.4455C81.874 50.4462 81.874 50.447 81.874 50.4478C81.874 50.4485 81.874 50.4493 81.874 50.45C81.874 50.4508 81.874 50.4515 81.874 50.4523C81.874 50.453 81.874 50.4538 81.874 50.4545C81.874 50.4553 81.874 50.4561 81.874 50.4568C81.874 50.4576 81.874 50.4583 81.874 50.4591C81.874 50.4598 81.874 50.4606 81.874 50.4613C81.874 50.4621 81.874 50.4628 81.874 50.4636C81.874 50.4643 81.874 50.4651 81.874 50.4658C81.874 50.4666 81.874 50.4673 81.874 50.4681C81.874 50.4688 81.874 50.4696 81.874 50.4703C81.874 50.4711 81.874 50.4718 81.874 50.4726C81.874 50.4734 81.874 50.4741 81.874 50.4749C81.874 50.4756 81.874 50.4764 81.874 50.4771C81.874 50.4779 81.874 50.4786 81.874 50.4794C81.874 50.4801 81.874 50.4809 81.874 50.4816C81.874 50.4824 81.874 50.4831 81.874 50.4838C81.874 50.4846 81.874 50.4853 81.874 50.4861C81.874 50.4868 81.874 50.4876 81.874 50.4883C81.874 50.4891 81.874 50.4898 81.874 50.4906C81.874 50.4913 81.874 50.4921 81.874 50.4928C81.874 50.4936 81.874 50.4943 81.874 50.4951C81.874 50.4958 81.874 50.4966 81.874 50.4973C81.874 50.4981 81.874 50.4988 81.874 50.4996C81.874 50.5003 81.874 50.501 81.874 50.5018C81.874 50.5025 81.874 50.5033 81.874 50.504C81.874 50.5048 81.874 50.5055 81.874 50.5063C81.874 50.507 81.874 50.5078 81.874 50.5085C81.874 50.5092 81.874 50.51 81.874 50.5107C81.874 50.5115 81.874 50.5122 81.874 50.513C81.874 50.5137 81.874 50.5145 81.874 50.5152C81.874 50.5159 81.874 50.5167 81.874 50.5174C81.874 50.5182 81.874 50.5189 81.874 50.5197C81.874 50.5204 81.874 50.5211 81.874 50.5219C81.874 50.5226 81.874 50.5234 81.874 50.5241C81.874 50.5249 81.874 50.5256 81.874 50.5263C81.874 50.5271 81.874 50.5278 81.874 50.5286C81.874 50.5293 81.874 50.5301 81.874 50.5308C81.874 50.5315 81.874 50.5323 81.874 50.533C81.874 50.5338 81.874 50.5345 81.874 50.5352C81.874 50.536 81.874 50.5367 81.874 50.5375C81.874 50.5382 81.874 50.5389 81.874 50.5397C81.874 50.5404 81.874 50.5412 81.874 50.5419C81.874 50.5426 81.874 50.5434 81.874 50.5441C81.874 50.5449 81.874 50.5456 81.874 50.5463C81.874 50.5471 81.874 50.5478 81.874 50.5486C81.874 50.5493 81.874 50.55 81.874 50.5508C81.874 50.5515 81.874 50.5522 81.874 50.553C81.874 50.5537 81.874 50.5545 81.874 50.5552C81.874 50.5559 81.874 50.5567 81.874 50.5574C81.874 50.5581 81.874 50.5589 81.874 50.5596C81.874 50.5604 81.874 50.5611 81.874 50.5618C81.874 50.5626 81.874 50.5633 81.874 50.564C81.874 50.5648 81.874 50.5655 81.874 50.5662C81.874 50.567 81.874 50.5677 81.874 50.5684C81.874 50.5692 81.874 50.5699 81.874 50.5707C81.874 50.5714 81.874 50.5721 81.874 50.5729C81.874 50.5736 81.874 50.5743 81.874 50.5751C81.874 50.5758 81.874 50.5765 81.874 50.5773C81.874 50.578 81.874 50.5787 81.874 50.5795C81.874 50.5802 81.874 50.5809 81.874 50.5817C81.874 50.5824 81.874 50.5831 81.874 50.5839C81.874 50.5846 81.874 50.5853 81.874 50.5861C81.874 50.5868 81.874 50.5875 81.874 50.5883C81.874 50.589 81.874 50.5897 81.874 50.5904C81.874 50.5912 81.874 50.5919 81.874 50.5926C81.874 50.5934 81.874 50.5941 81.874 50.5948C81.874 50.5956 81.874 50.5963 81.874 50.597C81.874 50.5978 81.874 50.5985 81.874 50.5992C81.874 50.5999 81.874 50.6007 81.874 50.6014C81.874 50.6021 81.874 50.6029 81.874 50.6036C81.874 50.6043 81.874 50.6051 81.874 50.6058C81.874 50.6065 81.874 50.6072 81.874 50.608C81.874 50.6087 81.874 50.6094 81.874 50.6102C81.874 50.6109 81.874 50.6116 81.874 50.6123C81.874 50.6131 81.874 50.6138 81.874 50.6145C81.874 50.6152 81.874 50.616 81.874 50.6167C81.874 50.6174 81.874 50.6182 81.874 50.6189C81.874 50.6196 81.874 50.6203 81.874 50.6211C81.874 50.6218 81.874 50.6225 81.874 50.6232C81.874 50.624 81.874 50.6247 81.874 50.6254C81.874 50.6261 81.874 50.6269 81.874 50.6276C81.874 50.6283 81.874 50.629 81.874 50.6298C81.874 50.6305 81.874 50.6312 81.874 50.6319C81.874 50.6327 81.874 50.6334 81.874 50.6341C81.874 50.6348 81.874 50.6356 81.874 50.6363C81.874 50.637 81.874 50.6377 81.874 50.6385C81.874 50.6392 81.874 50.6399 81.874 50.6406C81.874 50.6414 81.874 50.6421 81.874 50.6428C81.874 50.6435 81.874 50.6442 81.874 50.645C81.874 50.6457 81.874 50.6464 81.874 50.6471C81.874 50.6479 81.874 50.6486 81.874 50.6493C81.874 50.65 81.874 50.6507 81.874 50.6515C81.874 50.6522 81.874 50.6529 81.874 50.6536C81.874 50.6544 81.874 50.6551 81.874 50.6558C81.874 50.6565 81.874 50.6572 81.874 50.658C81.874 50.6587 81.874 50.6594 81.874 50.6601C81.874 50.6608 81.874 50.6616 81.874 50.6623C81.874 50.663 81.874 50.6637 81.874 50.6644C81.874 50.6651 81.874 50.6659 81.874 50.6666C81.874 50.6673 81.874 50.668 81.874 50.6687C81.874 50.6695 81.874 50.6702 81.874 50.6709C81.874 50.6716 81.874 50.6723 81.874 50.673C81.874 50.6738 81.874 50.6745 81.874 50.6752C81.874 50.6759 81.874 50.6766 81.874 50.6774C81.874 50.6781 81.874 50.6788 81.874 50.6795C81.874 50.6802 81.874 50.6809 81.874 50.6817C81.874 50.6824 81.874 50.6831 81.874 50.6838C81.874 50.6845 81.874 50.6852 81.874 50.6859C81.874 50.6867 81.874 50.6874 81.874 50.6881C81.874 50.6888 81.874 50.6895 81.874 50.6902C81.874 50.691 81.874 50.6917 81.874 50.6924C81.874 50.6931 81.874 50.6938 81.874 50.6945C81.874 50.6952 81.874 50.696 81.874 50.6967C81.874 50.6974 81.874 50.6981 81.874 50.6988C81.874 50.6995 81.874 50.7002 81.874 50.7009C81.874 50.7017 81.874 50.7024 81.874 50.7031C81.874 50.7038 81.874 50.7045 81.874 50.7052C81.874 50.7059 81.874 50.7066 81.874 50.7074C81.874 50.7081 81.874 50.7088 81.874 50.7095C81.874 50.7102 81.874 50.7109 81.874 50.7116C81.874 50.7123 81.874 50.713 81.874 50.7138C81.874 50.7145 81.874 50.7152 81.874 50.7159C81.874 50.7166 81.874 50.7173 81.874 50.718C81.874 50.7187 81.874 50.7194 81.874 50.7201C81.874 50.7209 81.874 50.7216 81.874 50.7223C81.874 50.723 81.874 50.7237 81.874 50.7244C81.874 50.7251 81.874 50.7258 81.874 50.7265C81.874 50.7272 81.874 50.7279 81.874 50.7287C81.874 50.7294 81.874 50.7301 81.874 50.7308C81.874 50.7315 81.874 50.7322 81.874 50.7329C81.874 50.7336 81.874 50.7343 81.874 50.735C81.874 50.7357 81.874 50.7364 81.874 50.7371C81.874 50.7379 81.874 50.7386 81.874 50.7393C81.874 50.74 81.874 50.7407 81.874 50.7414C81.874 50.7421 81.874 50.7428 81.874 50.7435C81.874 50.7442 81.874 50.7449 81.874 50.7456C81.874 50.7463 81.874 50.747 81.874 50.7477C81.874 50.7484 81.874 50.7491 81.874 50.7498C81.874 50.7505 81.874 50.7513 81.874 50.752C81.874 50.7527 81.874 50.7534 81.874 50.7541C81.874 50.7548 81.874 50.7555 81.874 50.7562C81.874 50.7569 81.874 50.7576 81.874 50.7583C81.874 50.759 81.874 50.7597 81.874 50.7604C81.874 50.7611 81.874 50.7618 81.874 50.7625C81.874 50.7632 81.874 50.7639 81.874 50.7646C81.874 50.7653 81.874 50.766 81.874 50.7667C81.874 50.7674 81.874 50.7681 81.874 50.7688C81.874 50.7695 81.874 50.7702 81.874 50.7709C81.874 50.7716 81.874 50.7723 81.874 50.773C81.874 50.7737 81.874 50.7744 81.874 50.7751C81.874 50.7758 81.874 50.7765 81.874 50.7772C81.874 50.7779 81.874 50.7786 81.874 50.7793C81.874 50.78 81.874 50.7807 81.874 50.7814C81.874 50.7821 81.874 50.7828 81.874 50.7835C81.874 50.7842 81.874 50.7849 81.874 50.7856C81.874 50.7863 81.874 50.787 81.874 50.7877C81.874 50.7884 81.874 50.7891 81.874 50.7898C81.874 50.7905 81.874 50.7912 81.874 50.7919C81.874 50.7926 81.874 50.7933 81.874 50.794C81.874 50.7947 81.874 50.7954 81.874 50.7961C81.874 50.7968 81.874 50.7975 81.874 50.7982C81.874 50.7989 81.874 50.7996 81.874 50.8003C81.874 50.8009 81.874 50.8016 81.874 50.8023C81.874 50.803 81.874 50.8037 81.874 50.8044C81.874 50.8051 81.874 50.8058 81.874 50.8065C81.874 50.8072 81.874 50.8079 81.874 50.8086H82.874ZM82.874 49.5986L83.8736 49.6289C83.8873 49.1765 83.901 48.6969 83.9147 48.1901L82.915 48.1631L81.9154 48.1361C81.9018 48.641 81.8881 49.1184 81.8745 49.5683L82.874 49.5986ZM82.915 48.1631L83.9147 48.1901C83.9284 47.684 83.942 47.1711 83.9557 46.6513L82.9561 46.625L81.9564 46.5987C81.9427 47.118 81.9291 47.6305 81.9154 48.1361L82.915 48.1631ZM82.9561 46.625L83.9547 46.6776C83.9824 46.1502 84.0033 45.6361 84.0172 45.1352L83.0176 45.1074L82.018 45.0797C82.0045 45.5631 81.9844 46.0607 81.9574 46.5724L82.9561 46.625ZM83.0176 45.1074L84.0164 45.155C84.0714 44.0013 84.1194 42.8001 84.1606 41.5515L83.1611 41.5186L82.1617 41.4856C82.1208 42.7253 82.0731 43.9167 82.0187 45.0599L83.0176 45.1074ZM83.1611 41.5186V40.5186H82.9971V41.5186V42.5186H83.1611V41.5186ZM82.9971 41.5186L82.0398 41.2293L74.9441 64.7107L75.9014 65L76.8586 65.2893L83.9543 41.8078L82.9971 41.5186ZM75.9014 65V64H70.0566V65V66H75.9014V65Z" fill="#1C1C21" mask="url(#path-2-inside-1_90019_94)"/>
</g>
</g>
<defs>
<filter id="filter0_ddi_90019_94" x="-3.52991" y="28.8457" width="105.727" height="57.6155" filterUnits="userSpaceOnUse" color-interpolation-filters="sRGB">
<feFlood flood-opacity="0" result="BackgroundImageFix"/>
<feColorMatrix in="SourceAlpha" type="matrix" values="0 0 0 0 0 0 0 0 0 0 0 0 0 0 0 0 0 0 127 0" result="hardAlpha"/>
<feMorphology radius="1" operator="dilate" in="SourceAlpha" result="effect1_dropShadow_90019_94"/>
<feOffset/>
<feComposite in2="hardAlpha" operator="out"/>
<feColorMatrix type="matrix" values="0 0 0 0 0.784314 0 0 0 0 0.858824 0 0 0 0 0.917647 0 0 0 1 0"/>
<feBlend mode="normal" in2="BackgroundImageFix" result="effect1_dropShadow_90019_94"/>
<feColorMatrix in="SourceAlpha" type="matrix" values="0 0 0 0 0 0 0 0 0 0 0 0 0 0 0 0 0 0 127 0" result="hardAlpha"/>
<feMorphology radius="5.74118" operator="erode" in="SourceAlpha" result="effect2_dropShadow_90019_94"/>
<feOffset dy="7.6549"/>
<feGaussianBlur stdDeviation="9.56865"/>
<feComposite in2="hardAlpha" operator="out"/>
<feColorMatrix type="matrix" values="0 0 0 0 0.788235 0 0 0 0 0.858824 0 0 0 0 0.917647 0 0 0 0.32 0"/>
<feBlend mode="normal" in2="effect1_dropShadow_90019_94" result="effect2_dropShadow_90019_94"/>
<feBlend mode="normal" in="SourceGraphic" in2="effect2_dropShadow_90019_94" result="shape"/>
<feColorMatrix in="SourceAlpha" type="matrix" values="0 0 0 0 0 0 0 0 0 0 0 0 0 0 0 0 0 0 127 0" result="hardAlpha"/>
<feOffset dy="3.82745"/>
<feGaussianBlur stdDeviation="4"/>
<feComposite in2="hardAlpha" operator="arithmetic" k2="-1" k3="1"/>
<feColorMatrix type="matrix" values="0 0 0 0 0.0470588 0 0 0 0 0.286275 0 0 0 0 0.52549 0 0 0 0.04 0"/>
<feBlend mode="normal" in2="shape" result="effect3_innerShadow_90019_94"/>
</filter>
<linearGradient id="paint0_linear_90019_94" x1="50" y1="0" x2="50" y2="100" gradientUnits="userSpaceOnUse">
<stop stop-color="#EBF3FA"/>
<stop offset="1" stop-color="#DFEDFA"/>
</linearGradient>
<clipPath id="clip0_90019_94">
<rect width="100" height="100" rx="14" fill="white"/>
</clipPath>
</defs>
</svg>
